<svg width="30" height="30" viewBox="0 0 30 30" fill="none" xmlns="http://www.w3.org/2000/svg">
<path d="M29.8028 26.4935C27.8984 23.1387 24.9249 20.5247 21.3607 19.0723C23.1331 17.738 24.4424 15.8777 25.103 13.755C25.7636 11.6323 25.742 9.35479 25.0414 7.24505C24.3408 5.13532 22.9966 3.30033 21.1993 2.00002C19.402 0.699713 17.2426 0 15.0271 0C12.8115 0 10.6522 0.699713 8.85484 2.00002C7.05751 3.30033 5.71334 5.13532 5.01273 7.24505C4.31212 9.35479 4.29058 11.6323 4.95118 13.755C5.61178 15.8777 6.92102 17.738 8.69344 19.0723C5.12928 20.5247 2.1557 23.1387 0.251386 26.4935C0.133388 26.6839 0.0547424 26.8962 0.0201255 27.1178C-0.0144914 27.3394 -0.00437339 27.5656 0.0498783 27.7832C0.10413 28.0008 0.201408 28.2052 0.335928 28.3842C0.470449 28.5633 0.639466 28.7134 0.832932 28.8256C1.0264 28.9378 1.24036 29.0098 1.46211 29.0373C1.68385 29.0649 1.90885 29.0474 2.12372 28.9859C2.33859 28.9244 2.53896 28.8202 2.7129 28.6794C2.88684 28.5386 3.0308 28.3642 3.13624 28.1665C5.65302 23.7999 10.0977 21.1956 15.0271 21.1956C19.9565 21.1956 24.4011 23.8013 26.9179 28.1665C27.1464 28.5353 27.5088 28.8004 27.9286 28.9059C28.3483 29.0113 28.7924 28.9488 29.1671 28.7315C29.5417 28.5143 29.8175 28.1593 29.9361 27.7416C30.0548 27.324 30.0069 26.8764 29.8028 26.4935ZM7.80451 10.5999C7.80451 9.16604 8.22811 7.76438 9.02173 6.57218C9.81536 5.37997 10.9434 4.45076 12.2631 3.90205C13.5829 3.35333 15.0351 3.20977 16.4361 3.4895C17.8372 3.76923 19.1241 4.45969 20.1342 5.47358C21.1443 6.48747 21.8322 7.77924 22.1108 9.18555C22.3895 10.5919 22.2465 12.0495 21.6998 13.3742C21.1532 14.6989 20.2274 15.8312 19.0397 16.6278C17.852 17.4244 16.4556 17.8496 15.0271 17.8496C13.1122 17.8474 11.2764 17.0829 9.92239 15.7238C8.56837 14.3647 7.80672 12.522 7.80451 10.5999Z" fill="#53586B"/>
</svg>
